<?xml version="1.0" encoding="UTF-8"?>
<svg version="1.1" xmlns="http://www.w3.org/2000/svg" width="1600" height="1449">
<path d="M0 0 C528 0 1056 0 1600 0 C1600 478.17 1600 956.34 1600 1449 C1072 1449 544 1449 0 1449 C0 970.83 0 492.66 0 0 Z " fill="#A8EC42" transform="translate(0,0)"/>
<path d="M0 0 C61.38 0 122.76 0 186 0 C186.33 88.44 186.66 176.88 187 268 C191.455 260.575 191.455 260.575 196 253 C199.86620157 246.67348834 203.75197674 240.36872142 207.75 234.125 C209.87984174 230.7938318 211.91959997 227.44330005 213.8515625 223.9921875 C217.81228405 217.12154808 222.07801083 210.41388865 226.375 203.75 C229.39930579 199.03014519 232.2393124 194.21639726 235.0625 189.375 C238.09395926 184.18031221 241.17522481 179.06951568 244.5703125 174.1015625 C246.27644193 171.59364546 247.92403224 169.05263432 249.5625 166.5 C250.10003906 165.6646875 250.63757813 164.829375 251.19140625 163.96875 C252.648739 161.57658394 254.01517155 159.17428598 255.359375 156.71875 C257.94942562 152.02004177 260.78727643 147.51177591 263.6875 143 C267.68381079 136.73360649 271.57316718 130.42312694 275.3125 124 C278.42787681 118.65139119 281.61726791 113.37860693 284.97265625 108.17578125 C287.77331214 103.78862665 290.5115082 99.36365318 293.25 94.9375 C293.81581787 94.02299072 294.38163574 93.10848145 294.96459961 92.16625977 C298.4543793 86.51852948 301.92200984 80.85777542 305.375 75.1875 C309.69679222 68.09141149 314.0891315 61.04102028 318.5 54 C325.5866253 42.68495024 332.6257043 31.34182063 339.46484375 19.875 C339.8613916 19.21056885 340.25793945 18.5461377 340.66650391 17.86157227 C341.72453296 16.08519243 342.77846894 14.30637643 343.83203125 12.52734375 C344.36805497 11.69288805 344.36805497 11.69288805 344.91490746 10.84157467 C346.07563351 8.97903117 346.07563351 8.97903117 346.9064579 6.72270298 C348.2939488 3.80330902 349.50410107 2.08191588 352 0 C357.83535844 -1.36716056 363.60802595 -1.13811528 369.57177734 -1.02172852 C371.38544589 -1.01918887 373.19912369 -1.02061678 375.01278687 -1.02571106 C379.93044252 -1.0282923 384.84612048 -0.97540199 389.76331663 -0.91254544 C394.9041715 -0.85626313 400.04507232 -0.85099534 405.18618774 -0.84031677 C414.91873282 -0.81234931 424.65036748 -0.73850246 434.38251173 -0.64817137 C445.46332693 -0.54755608 456.54418573 -0.498086 467.62534404 -0.45291245 C490.41740068 -0.35885221 513.20864932 -0.20056109 536 0 C536.01014893 2.41325936 536.01757653 4.82647567 536.0234375 7.23974609 C536.02657959 7.92028549 536.02972168 8.60082489 536.03295898 9.30198669 C536.0807737 35.54728464 525.85045835 66.30161721 512.43505859 88.60131836 C510.87152733 91.08353033 510.87152733 91.08353033 509.62109375 94.31640625 C507.88148745 98.4880835 505.53819315 102.16761449 503.0625 105.9375 C502.58232422 106.67258789 502.10214844 107.40767578 501.60742188 108.16503906 C493.26556677 120.78573704 483.97817951 132.63892499 474 144 C472.69869141 145.48693359 472.69869141 145.48693359 471.37109375 147.00390625 C466.53761972 152.42772826 461.58458812 157.36392078 456 162 C454.4385283 163.33237546 452.87708725 164.664787 451.31616211 165.99780273 C434.33611081 180.45303047 434.33611081 180.45303047 426 185 C424.57448742 185.92399382 423.15846422 186.86272148 421.75 187.8125 C412.12548483 194.27212401 402.45879245 199.99516185 392 205 C390.83726562 205.56589844 389.67453125 206.13179687 388.4765625 206.71484375 C384.6744008 208.53344821 380.84976746 210.28518771 377 212 C376.33484375 212.29986816 375.6696875 212.59973633 374.984375 212.90869141 C351.21606385 223.46928266 325.04242956 231.05740607 299.30273438 234.63720703 C295.49052546 235.23781586 291.75681475 236.12114675 288 237 C289.03253906 237.07476563 290.06507813 237.14953125 291.12890625 237.2265625 C303.30314422 238.26639529 314.68057592 241.03698438 326.42797852 244.31811523 C328.80743447 244.94894774 331.18306837 245.477397 333.59375 245.97265625 C338.3910294 247.00555565 342.86695318 248.67394346 347.4375 250.4375 C354.85401787 253.24934524 354.85401787 253.24934524 362.4375 255.5625 C367.30897826 256.93498605 371.61127154 259.21592301 376.08984375 261.54296875 C378.5623675 262.78089004 380.97181483 263.79933118 383.5625 264.75 C408.59499875 274.3716119 432.47704671 290.76973153 453.17138672 307.52539062 C454.72645642 308.77941212 456.30074858 310.00953621 457.87890625 311.234375 C463.88469308 315.90018692 469.42581222 321.00233019 474.97265625 326.1953125 C477.27957185 328.34956979 479.64015224 330.41300145 482.0625 332.4375 C494.49308881 343.21242899 504.48745529 356.69399111 514 370 C514.57492187 370.77730469 515.14984375 371.55460937 515.7421875 372.35546875 C521.19015666 379.84956458 525.58742513 387.8719451 530 396 C530.42249023 396.77118164 530.84498047 397.54236328 531.28027344 398.33691406 C536.5798124 408.03621986 541.44306241 417.66746578 545.27148438 428.05273438 C546.04302864 430.11501222 546.8550896 432.15837067 547.671875 434.203125 C555.28557096 453.59230341 560.39346681 473.86441438 562.72363281 494.56201172 C563.07703712 497.67958717 563.48273181 500.78970839 563.89013672 503.90063477 C565.11783112 514.89041475 565 524.68626935 565 536 C499.33 536 433.66 536 366 536 C364.515 524.615 364.515 524.615 363 513 C359.35698533 493.16580901 351.83195553 465.57649382 337 451 C336.56300781 450.11054687 336.12601563 449.22109375 335.67578125 448.3046875 C333.59733493 444.20593321 330.98069692 440.75927109 328.1875 437.125 C327.16015625 435.7734375 326.1328125 434.421875 325.10546875 433.0703125 C324.59628906 432.40483398 324.08710937 431.73935547 323.5625 431.05371094 C321.4597584 428.28991995 319.3919448 425.50053486 317.3269043 422.70849609 C315.41587862 420.24789671 313.25461132 418.14724887 311 416 C310.47277344 415.44054687 309.94554687 414.88109375 309.40234375 414.3046875 C303.18907405 407.78800973 296.16113153 402.41801778 289 397 C288.20078125 396.38253906 287.4015625 395.76507812 286.578125 395.12890625 C281.01559514 391.0161847 275.03651044 387.66894593 269 384.3125 C268.16903809 383.8484375 267.33807617 383.384375 266.48193359 382.90625 C261.50959159 380.19068411 256.51006774 377.89640585 251.22363281 375.86010742 C248.56455223 374.83156758 245.97734207 373.66358497 243.375 372.5 C236.79754701 369.75659805 230.080136 368.06730687 223.15478516 366.49707031 C220.95437503 365.98947514 218.76482298 365.44668866 216.57421875 364.8984375 C215.07054899 364.53547718 213.56664744 364.17347563 212.0625 363.8125 C211.40878418 363.64548584 210.75506836 363.47847168 210.08154297 363.30639648 C201.9764959 361.4275959 194.62637908 361.50743406 186 361 C186 418.75 186 476.5 186 536 C124.62 536 63.24 536 0 536 C0 359.12 0 182.24 0 0 Z " fill="#10290A" transform="translate(517,457)"/>
<path d="M0 0 C61.38 0 122.76 0 186 0 C186.06058594 19.32304687 186.12117187 38.64609375 186.18359375 58.5546875 C186.22406432 70.7591167 186.2647784 82.96354436 186.30664062 95.16796875 C186.32860785 101.57600886 186.35051301 107.98404917 186.37231445 114.39208984 C186.37641723 115.59687046 186.37641723 115.59687046 186.3806029 116.82599008 C186.42471865 129.80716663 186.46532839 142.78835191 186.50465261 155.76954375 C186.54506218 169.08337292 186.58921745 182.39718582 186.63687855 195.71099102 C186.66618905 203.93190246 186.69254826 212.15281263 186.71517897 220.37374522 C186.73095926 226.00467791 186.75036493 231.63559069 186.77266841 237.26650129 C186.78544401 240.5193273 186.79604046 243.77213527 186.80341911 247.02497864 C186.81165426 250.54507843 186.82592355 254.06510211 186.84178162 257.58517456 C186.84275972 258.62212302 186.84373783 259.65907148 186.84474558 260.72744262 C186.85022002 261.66497473 186.85569446 262.60250684 186.8613348 263.56844902 C186.86399284 264.38180997 186.86665089 265.19517092 186.86938947 266.03317916 C186.87777296 268.07801686 186.87777296 268.07801686 188 270 C186.68 270 185.36 270 184 270 C184 181.56 184 93.12 184 2 C182.35 2.33 180.7 2.66 179 3 C91.385 2.505 91.385 2.505 2 2 C1.67 178.22 1.34 354.44 1 536 C0.67 536 0.34 536 0 536 C0 359.12 0 182.24 0 0 Z " fill="#274F02" transform="translate(517,457)"/>
<path d="M0 0 C2.97 0 5.94 0 9 0 C9 0.33 9 0.66 9 1 C6.69 1 4.38 1 2 1 C2.00138269 2.35147204 2.00138269 2.35147204 2.00279331 3.73024654 C2.02484625 25.620058 2.04141043 47.50986755 2.05181217 69.39968777 C2.05697565 79.98529394 2.06401933 90.57089272 2.07543945 101.15649414 C2.08538471 110.37937759 2.09185305 119.60225569 2.09408849 128.82514435 C2.09539587 133.71176412 2.09848342 138.59836857 2.10573006 143.48498344 C2.11248778 148.07887461 2.11461747 152.67274405 2.11310768 157.26663971 C2.11338412 158.95779348 2.11539071 160.64894794 2.11920547 162.34009743 C2.12413887 164.63878176 2.12299962 166.9373827 2.12025452 169.23606873 C2.12163721 171.1704513 2.12163721 171.1704513 2.12304783 173.14391232 C2 176 2 176 1 177 C-1.41629846 177.0852914 -3.80331587 177.10497496 -6.21949768 177.08229065 C-7.36621576 177.07744696 -7.36621576 177.07744696 -8.53609985 177.07250541 C-11.11729603 177.06036821 -13.69838901 177.04100855 -16.27954102 177.02172852 C-18.1220273 177.01159229 -19.96451606 177.00189792 -21.80700684 176.99261475 C-26.82541655 176.96606794 -31.84376907 176.93330206 -36.86213422 176.89946485 C-42.10052824 176.86518673 -47.33895301 176.8365653 -52.57737732 176.80735779 C-62.50446649 176.75114132 -72.43151717 176.68979756 -82.35856432 176.62663645 C-93.65701982 176.55499751 -104.95550621 176.48903681 -116.25399888 176.42356598 C-139.50270598 176.28871995 -162.75136489 176.14670112 -186 176 C-186 175.67 -186 175.34 -186 175 C-124.62 175 -63.24 175 0 175 C0 117.25 0 59.5 0 0 Z " fill="#8EC249" transform="translate(703,818)"/>
</svg>